<svg width="84" height="84" viewBox="0 0 84 84" fill="none" xmlns="http://www.w3.org/2000/svg">
<path d="M41.9999 0.333374C18.9999 0.333374 0.333252 19 0.333252 42C0.333252 65 18.9999 83.6667 41.9999 83.6667C64.9999 83.6667 83.6666 65 83.6666 42C83.6666 19 64.9999 0.333374 41.9999 0.333374ZM41.9999 12.8334C48.9166 12.8334 54.4999 18.4167 54.4999 25.3334C54.4999 32.25 48.9166 37.8334 41.9999 37.8334C35.0833 37.8334 29.4999 32.25 29.4999 25.3334C29.4999 18.4167 35.0833 12.8334 41.9999 12.8334ZM41.9999 72C31.5833 72 22.3749 66.6667 16.9999 58.5834C17.1249 50.2917 33.6666 45.75 41.9999 45.75C50.2916 45.75 66.8749 50.2917 66.9999 58.5834C61.6249 66.6667 52.4166 72 41.9999 72Z" fill="#5D6FCB"/>
</svg>
