<svg width="48" height="48" viewBox="0 0 48 48" fill="none" xmlns="http://www.w3.org/2000/svg">
<g filter="url(#filter0_d)">
<path d="M39.3004 21.95C39.3775 21.325 39.4289 20.675 39.4289 20C39.4289 19.325 39.3775 18.675 39.2746 18.05L43.6205 14.75C44.0062 14.45 44.109 13.9 43.8776 13.475L39.7632 6.55C39.5061 6.1 38.9661 5.95 38.5032 6.1L33.3859 8.1C32.3059 7.3 31.1745 6.65 29.9144 6.15L29.143 0.85C29.0658 0.35 28.6287 0 28.1144 0H19.8856C19.3713 0 18.9599 0.35 18.8827 0.85L18.1113 6.15C16.8513 6.65 15.6941 7.325 14.6398 8.1L9.52252 6.1C9.05965 5.925 8.51964 6.1 8.26249 6.55L4.14811 13.475C3.89096 13.925 3.99382 14.45 4.40526 14.75L8.75107 18.05C8.64821 18.675 8.57107 19.35 8.57107 20C8.57107 20.65 8.6225 21.325 8.72536 21.95L4.37954 25.25C3.99382 25.55 3.89096 26.1 4.12239 26.525L8.23677 33.45C8.49392 33.9 9.03394 34.05 9.4968 33.9L14.6141 31.9C15.6941 32.7 16.8255 33.35 18.0856 33.85L18.857 39.15C18.9599 39.65 19.3713 40 19.8856 40H28.1144C28.6287 40 29.0658 39.65 29.1173 39.15L29.8887 33.85C31.1487 33.35 32.3059 32.675 33.3602 31.9L38.4775 33.9C38.9404 34.075 39.4804 33.9 39.7375 33.45L43.8519 26.525C44.109 26.075 44.0062 25.55 43.5947 25.25L39.3004 21.95ZM24 27.5C19.757 27.5 16.2855 24.125 16.2855 20C16.2855 15.875 19.757 12.5 24 12.5C28.243 12.5 31.7145 15.875 31.7145 20C31.7145 24.125 28.243 27.5 24 27.5Z" fill="black"/>
</g>
<defs>
<filter id="filter0_d" x="0" y="0" width="48" height="48" filterUnits="userSpaceOnUse" color-interpolation-filters="sRGB">
<feFlood flood-opacity="0" result="BackgroundImageFix"/>
<feColorMatrix in="SourceAlpha" type="matrix" values="0 0 0 0 0 0 0 0 0 0 0 0 0 0 0 0 0 0 127 0"/>
<feOffset dy="4"/>
<feGaussianBlur stdDeviation="2"/>
<feColorMatrix type="matrix" values="0 0 0 0 0 0 0 0 0 0 0 0 0 0 0 0 0 0 0.25 0"/>
<feBlend mode="normal" in2="BackgroundImageFix" result="effect1_dropShadow"/>
<feBlend mode="normal" in="SourceGraphic" in2="effect1_dropShadow" result="shape"/>
</filter>
</defs>
</svg>
