<svg width="57" height="57" viewBox="0 0 57 57" fill="none" xmlns="http://www.w3.org/2000/svg">
<g filter="url(#filter0_d)">
<path d="M27 2C13.2 2 2 13.2 2 27C2 40.8 13.2 52 27 52C40.8 52 52 40.8 52 27C52 13.2 40.8 2 27 2ZM27 9.5C31.15 9.5 34.5 12.85 34.5 17C34.5 21.15 31.15 24.5 27 24.5C22.85 24.5 19.5 21.15 19.5 17C19.5 12.85 22.85 9.5 27 9.5ZM27 45C20.75 45 15.225 41.8 12 36.95C12.075 31.975 22 29.25 27 29.25C31.975 29.25 41.925 31.975 42 36.95C38.775 41.8 33.25 45 27 45Z" fill="#5D6FCB"/>
</g>
<defs>
<filter id="filter0_d" x="0" y="0" width="58" height="58" filterUnits="userSpaceOnUse" color-interpolation-filters="sRGB">
<feFlood flood-opacity="0" result="BackgroundImageFix"/>
<feColorMatrix in="SourceAlpha" type="matrix" values="0 0 0 0 0 0 0 0 0 0 0 0 0 0 0 0 0 0 127 0"/>
<feOffset dx="2" dy="2"/>
<feGaussianBlur stdDeviation="2"/>
<feColorMatrix type="matrix" values="0 0 0 0 0 0 0 0 0 0 0 0 0 0 0 0 0 0 0.25 0"/>
<feBlend mode="normal" in2="BackgroundImageFix" result="effect1_dropShadow"/>
<feBlend mode="normal" in="SourceGraphic" in2="effect1_dropShadow" result="shape"/>
</filter>
</defs>
</svg>
