<svg width="360" height="230" viewBox="0 0 360 230" fill="none" xmlns="http://www.w3.org/2000/svg">
<path d="M77.0305 158.837C77.2849 157.83 78.7151 157.83 78.9695 158.837L80.1929 163.678C80.3456 164.282 81.0078 164.601 81.5754 164.344L86.1232 162.282C87.0689 161.853 87.9607 162.971 87.3322 163.798L84.3098 167.773C83.9326 168.269 84.0962 168.986 84.6513 169.269L89.099 171.539C90.0239 172.011 89.7056 173.405 88.6675 173.429L83.6754 173.545C83.0523 173.559 82.594 174.134 82.7187 174.744L83.717 179.637C83.9246 180.654 82.636 181.275 81.97 180.478L78.7672 176.647C78.3675 176.169 77.6325 176.169 77.2328 176.647L74.03 180.478C73.364 181.275 72.0754 180.654 72.283 179.637L73.2813 174.744C73.406 174.134 72.9477 173.559 72.3246 173.545L67.3325 173.429C66.2944 173.405 65.9761 172.011 66.901 171.539L71.3487 169.269C71.9038 168.986 72.0674 168.269 71.6902 167.773L68.6678 163.798C68.0393 162.971 68.9311 161.853 69.8768 162.282L74.4246 164.344C74.9922 164.601 75.6544 164.282 75.8071 163.678L77.0305 158.837Z" fill="#FFB800"/>
<path d="M14.0305 203.837C14.2849 202.83 15.7151 202.83 15.9695 203.837L17.1929 208.678C17.3456 209.282 18.0078 209.601 18.5754 209.344L23.1232 207.282C24.0689 206.853 24.9607 207.971 24.3322 208.798L21.3098 212.773C20.9326 213.269 21.0962 213.986 21.6513 214.269L26.099 216.539C27.0239 217.011 26.7056 218.405 25.6675 218.429L20.6754 218.545C20.0523 218.559 19.594 219.134 19.7187 219.744L20.717 224.637C20.9246 225.654 19.636 226.275 18.97 225.478L15.7672 221.647C15.3675 221.169 14.6325 221.169 14.2328 221.647L11.03 225.478C10.364 226.275 9.07537 225.654 9.28297 224.637L10.2813 219.744C10.406 219.134 9.9477 218.559 9.32464 218.545L4.33246 218.429C3.29441 218.405 2.97614 217.011 3.90098 216.539L8.34872 214.269C8.90383 213.986 9.06737 213.269 8.69016 212.773L5.6678 208.798C5.03934 207.971 5.93112 206.853 6.87677 207.282L11.4246 209.344C11.9922 209.601 12.6544 209.282 12.8071 208.678L14.0305 203.837Z" fill="#FFB800"/>
<path d="M260.03 45.8368C260.285 44.8302 261.715 44.8302 261.97 45.8368L263.193 50.6782C263.346 51.2824 264.008 51.6013 264.575 51.3439L269.123 49.2819C270.069 48.8531 270.961 49.9713 270.332 50.7979L267.31 54.7729C266.933 55.269 267.096 55.9855 267.651 56.2688L272.099 58.5388C273.024 59.0108 272.706 60.4053 271.668 60.4293L266.675 60.5446C266.052 60.559 265.594 61.1337 265.719 61.7443L266.717 66.637C266.925 67.6544 265.636 68.2749 264.97 67.4783L261.767 63.6472C261.367 63.1691 260.633 63.1691 260.233 63.6472L257.03 67.4783C256.364 68.2749 255.075 67.6544 255.283 66.637L256.281 61.7443C256.406 61.1337 255.948 60.559 255.325 60.5446L250.332 60.4293C249.294 60.4053 248.976 59.0108 249.901 58.5388L254.349 56.2688C254.904 55.9855 255.067 55.269 254.69 54.7729L251.668 50.7979C251.039 49.9714 251.931 48.8531 252.877 49.2819L257.425 51.3439C257.992 51.6013 258.654 51.2824 258.807 50.6782L260.03 45.8368Z" fill="#FFB800"/>
<path d="M344.03 3.83683C344.285 2.83015 345.715 2.83015 345.97 3.83683L347.193 8.67818C347.346 9.28241 348.008 9.60131 348.575 9.34395L353.123 7.28187C354.069 6.8531 354.961 7.97135 354.332 8.79788L351.31 12.7729C350.933 13.269 351.096 13.9855 351.651 14.2688L356.099 16.5388C357.024 17.0108 356.706 18.4053 355.668 18.4293L350.675 18.5446C350.052 18.559 349.594 19.1337 349.719 19.7443L350.717 24.637C350.925 25.6544 349.636 26.2749 348.97 25.4783L345.767 21.6472C345.367 21.1691 344.633 21.1691 344.233 21.6472L341.03 25.4783C340.364 26.2749 339.075 25.6544 339.283 24.637L340.281 19.7443C340.406 19.1337 339.948 18.559 339.325 18.5446L334.332 18.4293C333.294 18.4053 332.976 17.0108 333.901 16.5388L338.349 14.2688C338.904 13.9855 339.067 13.269 338.69 12.7729L335.668 8.79789C335.039 7.97135 335.931 6.8531 336.877 7.28187L341.425 9.34395C341.992 9.60131 342.654 9.28241 342.807 8.67818L344.03 3.83683Z" fill="#FFB800"/>
<path d="M313.03 173.837C313.285 172.83 314.715 172.83 314.97 173.837L316.193 178.678C316.346 179.282 317.008 179.601 317.575 179.344L322.123 177.282C323.069 176.853 323.961 177.971 323.332 178.798L320.31 182.773C319.933 183.269 320.096 183.986 320.651 184.269L325.099 186.539C326.024 187.011 325.706 188.405 324.668 188.429L319.675 188.545C319.052 188.559 318.594 189.134 318.719 189.744L319.717 194.637C319.925 195.654 318.636 196.275 317.97 195.478L314.767 191.647C314.367 191.169 313.633 191.169 313.233 191.647L310.03 195.478C309.364 196.275 308.075 195.654 308.283 194.637L309.281 189.744C309.406 189.134 308.948 188.559 308.325 188.545L303.332 188.429C302.294 188.405 301.976 187.011 302.901 186.539L307.349 184.269C307.904 183.986 308.067 183.269 307.69 182.773L304.668 178.798C304.039 177.971 304.931 176.853 305.877 177.282L310.425 179.344C310.992 179.601 311.654 179.282 311.807 178.678L313.03 173.837Z" fill="#FFB800"/>
<path d="M30.0305 56.8368C30.2849 55.8302 31.7151 55.8302 31.9695 56.8368L33.1929 61.6782C33.3456 62.2824 34.0078 62.6013 34.5754 62.3439L39.1232 60.2819C40.0689 59.8531 40.9607 60.9713 40.3322 61.7979L37.3098 65.7729C36.9326 66.269 37.0962 66.9855 37.6513 67.2688L42.099 69.5388C43.0239 70.0108 42.7056 71.4053 41.6675 71.4293L36.6754 71.5446C36.0523 71.559 35.594 72.1337 35.7187 72.7443L36.717 77.637C36.9246 78.6544 35.636 79.2749 34.97 78.4783L31.7672 74.6472C31.3675 74.1691 30.6325 74.1691 30.2328 74.6472L27.03 78.4783C26.364 79.2749 25.0754 78.6544 25.283 77.637L26.2813 72.7443C26.406 72.1337 25.9477 71.559 25.3246 71.5446L20.3325 71.4293C19.2944 71.4053 18.9761 70.0108 19.901 69.5388L24.3487 67.2688C24.9038 66.9855 25.0674 66.269 24.6902 65.7729L21.6678 61.7979C21.0393 60.9714 21.9311 59.8531 22.8768 60.2819L27.4246 62.3439C27.9922 62.6013 28.6544 62.2824 28.8071 61.6782L30.0305 56.8368Z" fill="#FFB800"/>
<path d="M139.03 15.8368C139.285 14.8302 140.715 14.8302 140.97 15.8368L142.193 20.6782C142.346 21.2824 143.008 21.6013 143.575 21.3439L148.123 19.2819C149.069 18.8531 149.961 19.9713 149.332 20.7979L146.31 24.7729C145.933 25.269 146.096 25.9855 146.651 26.2688L151.099 28.5388C152.024 29.0108 151.706 30.4053 150.668 30.4293L145.675 30.5446C145.052 30.559 144.594 31.1337 144.719 31.7443L145.717 36.637C145.925 37.6544 144.636 38.2749 143.97 37.4783L140.767 33.6472C140.367 33.1691 139.633 33.1691 139.233 33.6472L136.03 37.4783C135.364 38.2749 134.075 37.6544 134.283 36.637L135.281 31.7443C135.406 31.1337 134.948 30.559 134.325 30.5446L129.332 30.4293C128.294 30.4053 127.976 29.0108 128.901 28.5388L133.349 26.2688C133.904 25.9855 134.067 25.269 133.69 24.7729L130.668 20.7979C130.039 19.9714 130.931 18.8531 131.877 19.2819L136.425 21.3439C136.992 21.6013 137.654 21.2824 137.807 20.6782L139.03 15.8368Z" fill="#FFB800"/>
</svg>
