<svg width="322" height="148" viewBox="0 0 322 148" fill="none" xmlns="http://www.w3.org/2000/svg">
<path d="M261.03 3.83683C261.285 2.83015 262.715 2.83015 262.97 3.83683L264.193 8.67818C264.346 9.28241 265.008 9.60131 265.575 9.34395L270.123 7.28187C271.069 6.8531 271.961 7.97135 271.332 8.79788L268.31 12.7729C267.933 13.269 268.096 13.9855 268.651 14.2688L273.099 16.5388C274.024 17.0108 273.706 18.4053 272.668 18.4293L267.675 18.5446C267.052 18.559 266.594 19.1337 266.719 19.7443L267.717 24.637C267.925 25.6544 266.636 26.2749 265.97 25.4783L262.767 21.6472C262.367 21.1691 261.633 21.1691 261.233 21.6472L258.03 25.4783C257.364 26.2749 256.075 25.6544 256.283 24.637L257.281 19.7443C257.406 19.1337 256.948 18.559 256.325 18.5446L251.332 18.4293C250.294 18.4053 249.976 17.0108 250.901 16.5388L255.349 14.2688C255.904 13.9855 256.067 13.269 255.69 12.7729L252.668 8.79789C252.039 7.97135 252.931 6.8531 253.877 7.28187L258.425 9.34395C258.992 9.60131 259.654 9.28241 259.807 8.67818L261.03 3.83683Z" fill="#FFB800"/>
<path d="M279.03 46.8368C279.285 45.8302 280.715 45.8302 280.97 46.8368L282.193 51.6782C282.346 52.2824 283.008 52.6013 283.575 52.3439L288.123 50.2819C289.069 49.8531 289.961 50.9713 289.332 51.7979L286.31 55.7729C285.933 56.269 286.096 56.9855 286.651 57.2688L291.099 59.5388C292.024 60.0108 291.706 61.4053 290.668 61.4293L285.675 61.5446C285.052 61.559 284.594 62.1337 284.719 62.7443L285.717 67.637C285.925 68.6544 284.636 69.2749 283.97 68.4783L280.767 64.6472C280.367 64.1691 279.633 64.1691 279.233 64.6472L276.03 68.4783C275.364 69.2749 274.075 68.6544 274.283 67.637L275.281 62.7443C275.406 62.1337 274.948 61.559 274.325 61.5446L269.332 61.4293C268.294 61.4053 267.976 60.0108 268.901 59.5388L273.349 57.2688C273.904 56.9855 274.067 56.269 273.69 55.7729L270.668 51.7979C270.039 50.9714 270.931 49.8531 271.877 50.2819L276.425 52.3439C276.992 52.6013 277.654 52.2824 277.807 51.6782L279.03 46.8368Z" fill="#FFB800"/>
<path d="M44.0305 65.8368C44.2849 64.8302 45.7151 64.8302 45.9695 65.8368L47.1929 70.6782C47.3456 71.2824 48.0078 71.6013 48.5754 71.3439L53.1232 69.2819C54.0689 68.8531 54.9607 69.9713 54.3322 70.7979L51.3098 74.7729C50.9326 75.269 51.0962 75.9855 51.6513 76.2688L56.099 78.5388C57.0239 79.0108 56.7056 80.4053 55.6675 80.4293L50.6754 80.5446C50.0523 80.559 49.594 81.1337 49.7187 81.7443L50.717 86.637C50.9246 87.6544 49.636 88.2749 48.97 87.4783L45.7672 83.6472C45.3675 83.1691 44.6325 83.1691 44.2328 83.6472L41.03 87.4783C40.364 88.2749 39.0754 87.6544 39.283 86.637L40.2813 81.7443C40.406 81.1337 39.9477 80.559 39.3246 80.5446L34.3325 80.4293C33.2944 80.4053 32.9761 79.0108 33.901 78.5388L38.3487 76.2688C38.9038 75.9855 39.0674 75.269 38.6902 74.7729L35.6678 70.7979C35.0393 69.9714 35.9311 68.8531 36.8768 69.2819L41.4246 71.3439C41.9922 71.6013 42.6544 71.2824 42.8071 70.6782L44.0305 65.8368Z" fill="#FFB800"/>
<path d="M14.0305 106.837C14.2849 105.83 15.7151 105.83 15.9695 106.837L17.1929 111.678C17.3456 112.282 18.0078 112.601 18.5754 112.344L23.1232 110.282C24.0689 109.853 24.9607 110.971 24.3322 111.798L21.3098 115.773C20.9326 116.269 21.0962 116.986 21.6513 117.269L26.099 119.539C27.0239 120.011 26.7056 121.405 25.6675 121.429L20.6754 121.545C20.0523 121.559 19.594 122.134 19.7187 122.744L20.717 127.637C20.9246 128.654 19.636 129.275 18.97 128.478L15.7672 124.647C15.3675 124.169 14.6325 124.169 14.2328 124.647L11.03 128.478C10.364 129.275 9.07537 128.654 9.28297 127.637L10.2813 122.744C10.406 122.134 9.9477 121.559 9.32464 121.545L4.33246 121.429C3.29441 121.405 2.97614 120.011 3.90098 119.539L8.34872 117.269C8.90383 116.986 9.06737 116.269 8.69016 115.773L5.6678 111.798C5.03934 110.971 5.93112 109.853 6.87677 110.282L11.4246 112.344C11.9922 112.601 12.6544 112.282 12.8071 111.678L14.0305 106.837Z" fill="#FFB800"/>
<path d="M57.0305 121.837C57.2849 120.83 58.7151 120.83 58.9695 121.837L60.1929 126.678C60.3456 127.282 61.0078 127.601 61.5754 127.344L66.1232 125.282C67.0689 124.853 67.9607 125.971 67.3322 126.798L64.3098 130.773C63.9326 131.269 64.0962 131.986 64.6513 132.269L69.099 134.539C70.0239 135.011 69.7056 136.405 68.6675 136.429L63.6754 136.545C63.0523 136.559 62.594 137.134 62.7187 137.744L63.717 142.637C63.9246 143.654 62.636 144.275 61.97 143.478L58.7672 139.647C58.3675 139.169 57.6325 139.169 57.2328 139.647L54.03 143.478C53.364 144.275 52.0754 143.654 52.283 142.637L53.2813 137.744C53.406 137.134 52.9477 136.559 52.3246 136.545L47.3325 136.429C46.2944 136.405 45.9761 135.011 46.901 134.539L51.3487 132.269C51.9038 131.986 52.0674 131.269 51.6902 130.773L48.6678 126.798C48.0393 125.971 48.9311 124.853 49.8768 125.282L54.4246 127.344C54.9922 127.601 55.6544 127.282 55.8071 126.678L57.0305 121.837Z" fill="#FFB800"/>
<path d="M306.03 76.8368C306.285 75.8302 307.715 75.8302 307.97 76.8368L309.193 81.6782C309.346 82.2824 310.008 82.6013 310.575 82.3439L315.123 80.2819C316.069 79.8531 316.961 80.9713 316.332 81.7979L313.31 85.7729C312.933 86.269 313.096 86.9855 313.651 87.2688L318.099 89.5388C319.024 90.0108 318.706 91.4053 317.668 91.4293L312.675 91.5446C312.052 91.559 311.594 92.1337 311.719 92.7443L312.717 97.637C312.925 98.6544 311.636 99.2749 310.97 98.4783L307.767 94.6472C307.367 94.1691 306.633 94.1691 306.233 94.6472L303.03 98.4783C302.364 99.2749 301.075 98.6544 301.283 97.637L302.281 92.7443C302.406 92.1337 301.948 91.559 301.325 91.5446L296.332 91.4293C295.294 91.4053 294.976 90.0108 295.901 89.5388L300.349 87.2688C300.904 86.9855 301.067 86.269 300.69 85.7729L297.668 81.7979C297.039 80.9714 297.931 79.8531 298.877 80.2819L303.425 82.3439C303.992 82.6013 304.654 82.2824 304.807 81.6782L306.03 76.8368Z" fill="#FFB800"/>
<path d="M276.03 106.837C276.285 105.83 277.715 105.83 277.97 106.837L279.193 111.678C279.346 112.282 280.008 112.601 280.575 112.344L285.123 110.282C286.069 109.853 286.961 110.971 286.332 111.798L283.31 115.773C282.933 116.269 283.096 116.986 283.651 117.269L288.099 119.539C289.024 120.011 288.706 121.405 287.668 121.429L282.675 121.545C282.052 121.559 281.594 122.134 281.719 122.744L282.717 127.637C282.925 128.654 281.636 129.275 280.97 128.478L277.767 124.647C277.367 124.169 276.633 124.169 276.233 124.647L273.03 128.478C272.364 129.275 271.075 128.654 271.283 127.637L272.281 122.744C272.406 122.134 271.948 121.559 271.325 121.545L266.332 121.429C265.294 121.405 264.976 120.011 265.901 119.539L270.349 117.269C270.904 116.986 271.067 116.269 270.69 115.773L267.668 111.798C267.039 110.971 267.931 109.853 268.877 110.282L273.425 112.344C273.992 112.601 274.654 112.282 274.807 111.678L276.03 106.837Z" fill="#FFB800"/>
<path d="M57.0305 3.83683C57.2849 2.83015 58.7151 2.83015 58.9695 3.83683L60.1929 8.67818C60.3456 9.28241 61.0078 9.60131 61.5754 9.34395L66.1232 7.28187C67.0689 6.8531 67.9607 7.97135 67.3322 8.79788L64.3098 12.7729C63.9326 13.269 64.0962 13.9855 64.6513 14.2688L69.099 16.5388C70.0239 17.0108 69.7056 18.4053 68.6675 18.4293L63.6754 18.5446C63.0523 18.559 62.594 19.1337 62.7187 19.7443L63.717 24.637C63.9246 25.6544 62.636 26.2749 61.97 25.4783L58.7672 21.6472C58.3675 21.1691 57.6325 21.1691 57.2328 21.6472L54.03 25.4783C53.364 26.2749 52.0754 25.6544 52.283 24.637L53.2813 19.7443C53.406 19.1337 52.9477 18.559 52.3246 18.5446L47.3325 18.4293C46.2944 18.4053 45.9761 17.0108 46.901 16.5388L51.3487 14.2688C51.9038 13.9855 52.0674 13.269 51.6902 12.7729L48.6678 8.79789C48.0393 7.97135 48.9311 6.8531 49.8768 7.28187L54.4246 9.34395C54.9922 9.60131 55.6544 9.28241 55.8071 8.67818L57.0305 3.83683Z" fill="#FFB800"/>
<path d="M18.0305 24.8368C18.2849 23.8302 19.7151 23.8302 19.9695 24.8368L21.1929 29.6782C21.3456 30.2824 22.0078 30.6013 22.5754 30.3439L27.1232 28.2819C28.0689 27.8531 28.9607 28.9713 28.3322 29.7979L25.3098 33.7729C24.9326 34.269 25.0962 34.9855 25.6513 35.2688L30.099 37.5388C31.0239 38.0108 30.7056 39.4053 29.6675 39.4293L24.6754 39.5446C24.0523 39.559 23.594 40.1337 23.7187 40.7443L24.717 45.637C24.9246 46.6544 23.636 47.2749 22.97 46.4783L19.7672 42.6472C19.3675 42.1691 18.6325 42.1691 18.2328 42.6472L15.03 46.4783C14.364 47.2749 13.0754 46.6544 13.283 45.637L14.2813 40.7443C14.406 40.1337 13.9477 39.559 13.3246 39.5446L8.33246 39.4293C7.29441 39.4053 6.97614 38.0108 7.90098 37.5388L12.3487 35.2688C12.9038 34.9855 13.0674 34.269 12.6902 33.7729L9.6678 29.7979C9.03934 28.9714 9.93112 27.8531 10.8768 28.2819L15.4246 30.3439C15.9922 30.6013 16.6544 30.2824 16.8071 29.6782L18.0305 24.8368Z" fill="#FFB800"/>
<path d="M306.03 16.8368C306.285 15.8302 307.715 15.8302 307.97 16.8368L309.193 21.6782C309.346 22.2824 310.008 22.6013 310.575 22.3439L315.123 20.2819C316.069 19.8531 316.961 20.9713 316.332 21.7979L313.31 25.7729C312.933 26.269 313.096 26.9855 313.651 27.2688L318.099 29.5388C319.024 30.0108 318.706 31.4053 317.668 31.4293L312.675 31.5446C312.052 31.559 311.594 32.1337 311.719 32.7443L312.717 37.637C312.925 38.6544 311.636 39.2749 310.97 38.4783L307.767 34.6472C307.367 34.1691 306.633 34.1691 306.233 34.6472L303.03 38.4783C302.364 39.2749 301.075 38.6544 301.283 37.637L302.281 32.7443C302.406 32.1337 301.948 31.559 301.325 31.5446L296.332 31.4293C295.294 31.4053 294.976 30.0108 295.901 29.5388L300.349 27.2688C300.904 26.9855 301.067 26.269 300.69 25.7729L297.668 21.7979C297.039 20.9714 297.931 19.8531 298.877 20.2819L303.425 22.3439C303.992 22.6013 304.654 22.2824 304.807 21.6782L306.03 16.8368Z" fill="#FFB800"/>
</svg>
